# xmcd
#
# Track frame offsets: 
#        150
#        17065
#        33172
#        46252
#        62234
#        85695
#        97715
#        115644
#        139654
#        151544
#        162187
#        175926
#        196494
#        208816
#
# Disc length: 2965 seconds
#
# Revision: 1
# Processed by: cddbd v1.5.2PL0 Copyright (c) Steve Scherf et al.
# Submitted via: ExactAudioCopy v1.0b3
#
DISCID=a50b930e
DTITLE=The Mule Newman Band - Sea Of Blues
DYEAR=1999
DGENRE=Blues
TTITLE0=Do You Feel It
TTITLE1=Help Me
TTITLE2=I'm Here
TTITLE3=Who Do You Love
TTITLE4=Wine, Women And Song
TTITLE5=What Is The Reason
TTITLE6=Homework
TTITLE7=Didn't Want To Do It
TTITLE8=Fakin' It
TTITLE9=Aquamarine Pearl
TTITLE10=Killin' Me With Kindness
TTITLE11=But That's Ok
TTITLE12=Born In Chicago
TTITLE13=Sea Of Blues
EXTD=
EXTT0=
EXTT1=
EXTT2=
EXTT3=
EXTT4=
EXTT5=
EXTT6=
EXTT7=
EXTT8=
EXTT9=
EXTT10=
EXTT11=
EXTT12=
EXTT13=
PLAYORDER=
